<svg version="1.1" id="Layer_1" xmlns="http://www.w3.org/2000/svg" xmlns:xlink="http://www.w3.org/1999/xlink" x="0px" y="0px"
	 width="100%" viewBox="0 0 5000 1500" enable-background="new 0 0 5000 1500" xml:space="preserve">
<path fill="#FFFFFF" opacity="1.000000" stroke="none" 
	d="
M3632.000000,1502.000000 
	C2421.333496,1502.000000 1211.667114,1502.000000 2.000487,1502.000000 
	C2.000325,1002.000305 2.000325,502.000610 2.000162,2.000688 
	C1668.666016,2.000459 3335.332031,2.000459 5001.998535,2.000229 
	C5001.999023,501.999298 5001.999023,1001.998596 5001.999512,1501.999023 
	C4545.666504,1502.000000 4089.333252,1502.000000 3632.000000,1502.000000 
M475.527222,363.487000 
	C452.288727,358.769257 428.784058,356.104004 405.103149,356.054504 
	C296.789795,355.828033 188.475861,355.871185 80.162132,355.862274 
	C77.649277,355.862091 75.136375,356.390045 72.879005,356.643005 
	C72.879005,620.214355 72.879005,882.982666 72.879005,1146.325195 
	C77.573769,1146.325195 81.550346,1146.325317 85.526924,1146.325317 
	C188.841751,1146.325317 292.156830,1146.442017 395.471191,1146.226562 
	C416.105316,1146.183594 436.800049,1145.651123 457.355988,1143.980347 
	C497.540314,1140.714478 536.112122,1131.077026 571.941956,1111.896484 
	C605.826416,1093.757202 634.162170,1069.557251 653.677979,1036.074585 
	C682.789551,986.128967 689.288391,932.343628 676.292847,876.814392 
	C660.914429,811.102966 619.738525,767.122437 556.136414,744.927795 
	C541.234985,739.727844 525.137207,737.956360 508.952667,734.470276 
	C506.510956,729.212952 510.557678,727.813293 515.108582,726.699280 
	C532.013916,722.561279 548.181030,716.473511 563.388062,707.989258 
	C591.550293,692.276978 615.327820,671.831787 631.164856,643.289062 
	C651.249695,607.090515 654.710327,567.981628 649.241882,527.883484 
	C642.685791,479.810211 619.299683,440.852600 582.087463,410.087524 
	C551.514038,384.811127 515.643250,371.343628 475.527222,363.487000 
M3808.440918,970.548218 
	C3828.295898,1027.379028 3848.163818,1084.205444 3867.991211,1141.045898 
	C3870.613525,1148.563477 3875.056641,1156.174194 3874.975586,1163.702026 
	C3874.894287,1171.245605 3870.312744,1178.780762 3867.507080,1186.245972 
	C3862.551514,1199.433228 3856.035400,1211.726807 3846.318604,1222.119751 
	C3836.837158,1232.260620 3825.245117,1238.828979 3811.409180,1239.483276 
	C3798.846924,1240.077515 3786.135254,1239.566284 3773.613770,1238.307007 
	C3763.854004,1237.325439 3754.285156,1234.446899 3744.032471,1232.285278 
	C3731.759277,1274.744629 3719.609375,1316.777710 3707.351318,1359.184937 
	C3730.172119,1368.925659 3753.193848,1373.516479 3776.739258,1376.016479 
	C3802.074463,1378.706421 3827.316162,1377.787231 3852.454834,1373.911255 
	C3885.522217,1368.812744 3916.312744,1357.790771 3943.239990,1337.502808 
	C3982.305908,1308.068848 4010.069092,1269.946533 4027.503418,1224.475220 
	C4037.978027,1197.155884 4047.162842,1169.340698 4056.853271,1141.722290 
	C4124.464844,949.020752 4192.059082,756.313049 4259.636230,563.599487 
	C4260.681641,560.617432 4261.435059,557.532837 4262.411133,554.201416 
	C4203.901367,554.201416 4146.359863,554.201416 4088.848633,554.201416 
	C4087.783447,557.888672 4086.852539,561.067017 4085.946777,564.252502 
	C4046.471436,703.101562 4006.998047,841.951172 3967.520264,980.799561 
	C3966.974609,982.718445 3966.670654,984.794983 3965.694580,986.472717 
	C3964.983154,987.695862 3963.376709,989.066528 3962.119629,989.115845 
	C3960.869141,989.164917 3959.035889,987.932007 3958.389404,986.751343 
	C3957.296143,984.754089 3956.903564,982.364441 3956.272949,980.123901 
	C3919.404541,849.177795 3882.549072,718.228088 3845.667480,587.285767 
	C3842.529297,576.144409 3839.221924,565.050720 3836.015625,554.011963 
	C3778.348145,554.011963 3721.421875,554.011963 3663.429688,554.011963 
	C3711.770508,692.781006 3759.887451,830.907043 3808.440918,970.548218 
M766.692261,904.111755 
	C770.456848,922.345520 772.768066,941.026978 778.224365,958.739624 
	C811.159912,1065.657471 881.840210,1131.718140 992.478516,1152.781860 
	C1033.695068,1160.629028 1075.319580,1160.151978 1116.751465,1153.231445 
	C1159.468262,1146.096313 1198.694702,1130.407104 1233.698120,1104.656616 
	C1285.160278,1066.798340 1317.014648,1015.695923 1334.077759,954.860840 
	C1346.255005,911.445740 1349.244629,867.113586 1346.192749,822.218628 
	C1343.179810,777.899719 1333.479614,735.358276 1313.677979,695.399292 
	C1292.201294,652.060059 1261.657349,616.742310 1220.812256,590.473328 
	C1176.168213,561.761108 1126.699951,548.981995 1074.322876,546.393005 
	C1041.958984,544.793213 1009.742371,546.854126 977.989563,554.029785 
	C923.109131,566.432068 876.068176,592.600952 838.423218,634.599121 
	C794.578552,683.513794 773.083191,742.095703 766.059998,806.590332 
	C762.585449,838.497803 762.997314,870.432373 766.692261,904.111755 
M1447.814087,967.246582 
	C1450.424438,974.437561 1452.746460,981.748901 1455.689209,988.801147 
	C1490.324585,1071.802612 1550.760010,1125.550171 1638.023560,1148.144653 
	C1678.378784,1158.593384 1719.525269,1160.395996 1760.987549,1156.367554 
	C1790.689575,1153.481689 1819.596680,1147.126343 1846.933960,1135.201050 
	C1935.033569,1096.769531 1985.307251,1027.783081 2005.950439,935.616760 
	C2015.047485,895.001404 2016.144531,853.809570 2012.473633,812.392517 
	C2008.850708,771.519775 1999.311035,732.279968 1980.795410,695.542725 
	C1938.449829,611.523865 1869.440186,564.447815 1777.342407,550.001160 
	C1741.578857,544.391174 1705.733154,544.757019 1669.841919,549.793213 
	C1631.740356,555.139526 1595.837036,566.813782 1563.075317,586.929504 
	C1501.260010,624.884094 1463.220947,680.632141 1443.928223,749.776062 
	C1432.175049,791.897766 1429.271118,834.948242 1431.740479,878.483643 
	C1433.426392,908.207581 1438.205811,937.346619 1447.814087,967.246582 
M2165.063232,1099.950928 
	C2191.230957,1120.815063 2220.692139,1135.170898 2252.863525,1144.020386 
	C2314.660645,1161.019653 2377.231689,1162.563110 2440.031494,1151.447754 
	C2481.453857,1144.116211 2520.363525,1129.614014 2554.361328,1104.009399 
	C2600.609375,1069.178833 2628.082275,1024.282349 2628.620850,964.900757 
	C2628.910889,932.935181 2621.314697,903.537292 2601.886475,877.746948 
	C2588.225098,859.612183 2570.805176,845.810608 2551.063965,834.857605 
	C2518.337158,816.699646 2482.743652,807.169617 2446.334961,799.941467 
	C2411.072754,792.940857 2375.776855,786.027039 2340.750488,777.966980 
	C2327.268311,774.864624 2313.922607,769.846313 2301.516846,763.683594 
	C2280.381836,753.184265 2271.208252,732.750977 2276.008301,710.304443 
	C2279.322510,694.806152 2289.682373,684.703796 2303.039551,677.417725 
	C2331.517578,661.883606 2362.047363,659.022095 2393.259277,665.181152 
	C2429.265625,672.286133 2453.560303,693.385864 2464.161133,729.169250 
	C2464.417725,730.035889 2465.169434,730.756042 2465.958740,731.950134 
	C2515.288330,728.878845 2564.654297,725.805237 2614.736328,722.687073 
	C2614.337158,718.446472 2614.281738,715.485962 2613.754395,712.612122 
	C2606.972412,675.661621 2591.720459,642.917786 2565.315186,615.788574 
	C2529.708252,579.205261 2485.281494,560.421143 2435.823486,551.976501 
	C2390.801514,544.289246 2345.618408,543.931396 2300.431641,550.175232 
	C2262.803711,555.374512 2226.979004,566.264404 2194.214844,586.014832 
	C2161.001709,606.036072 2135.327637,632.607117 2121.627441,669.610840 
	C2111.566162,696.785278 2109.766846,724.923157 2112.749512,753.346130 
	C2115.885010,783.228699 2126.909668,810.112976 2146.968262,832.833374 
	C2167.293213,855.855652 2193.060791,870.777710 2221.200928,882.143066 
	C2250.736328,894.071838 2281.871582,899.717896 2312.869873,905.979736 
	C2341.906982,911.845520 2370.973633,917.594482 2399.894531,923.994385 
	C2415.927246,927.542175 2431.171631,933.530212 2443.933838,944.350464 
	C2466.424072,963.418701 2467.582764,991.836609 2446.887695,1012.723389 
	C2436.265869,1023.443848 2423.191406,1029.934326 2408.875244,1033.829834 
	C2381.340820,1041.322021 2353.554932,1041.756958 2325.846436,1034.910156 
	C2291.805420,1026.498657 2268.446289,1006.456787 2258.888672,971.882324 
	C2258.383789,970.055542 2257.643311,968.294006 2256.925049,966.253662 
	C2203.144531,969.082520 2149.994141,971.878174 2096.136963,974.711060 
	C2096.438232,977.985352 2096.491699,980.576477 2096.936035,983.098755 
	C2105.178467,1029.892578 2127.251221,1068.706055 2165.063232,1099.950928 
M3170.394043,608.999817 
	C3170.394043,787.869995 3170.394043,966.740173 3170.394043,1145.835449 
	C3339.633057,1145.835449 3507.781738,1145.835449 3675.878906,1145.835449 
	C3677.772461,1127.108765 3677.038086,1016.284241 3674.789551,1008.322754 
	C3562.884033,1008.322754 3450.737549,1008.322754 3337.530762,1008.322754 
	C3337.530762,790.399658 3337.530762,573.316772 3337.530762,356.506714 
	C3281.313232,356.506714 3226.163818,356.506714 3171.225586,356.506714 
	C3170.836182,357.804688 3170.490723,358.418427 3170.490234,359.032349 
	C3170.441650,441.688141 3170.418457,524.343933 3170.394043,608.999817 
M2936.323975,451.000732 
	C2936.323975,438.127289 2936.323975,425.253845 2936.323975,412.426208 
	C2880.954590,412.426208 2826.863281,412.426208 2771.883789,412.426208 
	C2771.883789,459.670410 2771.883789,506.172821 2771.883789,553.818176 
	C2744.567139,553.818176 2718.117432,553.818176 2691.597168,553.818176 
	C2691.597168,595.416321 2691.597168,635.857361 2691.597168,677.196716 
	C2718.551758,677.196716 2744.752930,677.196716 2772.122070,677.196716 
	C2772.122070,681.980957 2772.122070,685.880066 2772.122070,689.779114 
	C2772.122070,785.091675 2772.044678,880.404419 2772.207520,975.716736 
	C2772.231201,989.681458 2772.720459,1003.715759 2774.183350,1017.592468 
	C2776.912598,1043.474365 2784.866943,1067.703369 2800.229492,1089.050781 
	C2821.852051,1119.096558 2852.048584,1136.506836 2886.979004,1146.103760 
	C2931.200928,1158.253296 2975.926758,1157.403198 3020.629150,1148.829956 
	C3033.260986,1146.407471 3045.648438,1142.710571 3058.893311,1139.412476 
	C3050.219971,1098.159790 3041.819336,1058.204590 3033.225586,1017.331604 
	C3024.804688,1018.614624 3017.037109,1019.920349 3009.234131,1020.960388 
	C2994.912842,1022.869324 2980.695312,1022.961487 2966.758545,1018.267944 
	C2952.405029,1013.433838 2942.559326,1004.257507 2939.568848,989.116028 
	C2937.900879,980.670898 2936.491699,972.002136 2936.471191,963.430542 
	C2936.250000,870.784546 2936.322510,778.137878 2936.354248,685.491394 
	C2936.355225,682.947510 2936.799072,680.403748 2937.122314,676.935669 
	C2974.301514,676.935669 3010.841064,676.935669 3047.553711,676.935669 
	C3047.553711,635.457458 3047.553711,594.976501 3047.553711,553.676147 
	C3037.698242,553.676147 3028.432129,553.676147 3019.166016,553.676147 
	C3010.167969,553.676147 3001.169922,553.676147 2992.171875,553.676147 
	C2982.840576,553.676147 2973.508301,553.762878 2964.178223,553.651672 
	C2955.017334,553.542419 2945.800293,554.152405 2936.324219,553.185364 
	C2936.324219,518.960388 2936.324219,485.980347 2936.323975,451.000732 
M4650.489258,543.430054 
	C4652.966797,538.348511 4655.954102,533.445312 4657.810059,528.145996 
	C4661.021484,518.977478 4656.487305,510.714935 4647.124512,507.870117 
	C4639.017578,505.406616 4632.083984,508.081757 4625.977539,513.422791 
	C4598.646973,537.329285 4571.411133,561.343811 4544.009277,585.168396 
	C4490.463379,631.723633 4436.842285,678.192688 4383.228027,724.669434 
	C4338.675293,763.291260 4294.085938,801.871033 4249.518555,840.475891 
	C4244.400391,844.909363 4241.423340,850.045532 4243.564941,857.175110 
	C4245.781738,864.552551 4250.195801,869.459595 4258.029297,870.492859 
	C4262.301758,871.056335 4266.648438,871.269287 4270.961914,871.272583 
	C4332.935059,871.320251 4394.907715,871.305359 4456.880859,871.305420 
	C4460.410156,871.305420 4463.939453,871.305420 4468.680664,871.305420 
	C4467.146484,875.200195 4466.408691,877.680481 4465.244141,879.941101 
	C4436.875488,935.003479 4408.444336,990.033569 4380.064453,1045.090332 
	C4369.688965,1065.218628 4359.203125,1085.294678 4349.182617,1105.599365 
	C4343.588379,1116.934570 4349.089844,1127.887207 4360.859375,1129.809326 
	C4368.291016,1131.023193 4374.439453,1128.089233 4379.986816,1123.225830 
	C4416.556152,1091.162598 4453.107422,1059.078003 4489.821289,1027.180908 
	C4547.408203,977.148865 4605.111816,927.251526 4662.779785,877.313171 
	C4693.502441,850.708618 4724.152344,824.018372 4755.076660,797.649414 
	C4761.476562,792.192261 4763.894531,786.144043 4761.601074,778.289795 
	C4759.298340,770.404053 4753.716797,766.665527 4744.078613,766.176270 
	C4741.087402,766.024475 4738.082520,766.130981 4735.083984,766.130920 
	C4672.777832,766.129578 4610.471191,766.137451 4548.165039,766.109680 
	C4544.717285,766.108154 4541.269043,765.814575 4536.082031,765.577393 
	C4574.596191,690.837891 4612.229004,617.808533 4650.489258,543.430054 
z"/>
<path fill="#1565FF" opacity="1.000000" stroke="none" 
	d="
M476.365906,363.636597 
	C515.643250,371.343628 551.514038,384.811127 582.087463,410.087524 
	C619.299683,440.852600 642.685791,479.810211 649.241882,527.883484 
	C654.710327,567.981628 651.249695,607.090515 631.164856,643.289062 
	C615.327820,671.831787 591.550293,692.276978 563.388062,707.989258 
	C548.181030,716.473511 532.013916,722.561279 515.108582,726.699280 
	C510.557678,727.813293 506.510956,729.212952 508.952667,734.470276 
	C525.137207,737.956360 541.234985,739.727844 556.136414,744.927795 
	C619.738525,767.122437 660.914429,811.102966 676.292847,876.814392 
	C689.288391,932.343628 682.789551,986.128967 653.677979,1036.074585 
	C634.162170,1069.557251 605.826416,1093.757202 571.941956,1111.896484 
	C536.112122,1131.077026 497.540314,1140.714478 457.355988,1143.980347 
	C436.800049,1145.651123 416.105316,1146.183594 395.471191,1146.226562 
	C292.156830,1146.442017 188.841751,1146.325317 85.526924,1146.325317 
	C81.550346,1146.325317 77.573769,1146.325195 72.879005,1146.325195 
	C72.879005,882.982666 72.879005,620.214355 72.879005,356.643005 
	C75.136375,356.390045 77.649277,355.862091 80.162132,355.862274 
	C188.475861,355.871185 296.789795,355.828033 405.103149,356.054504 
	C428.784058,356.104004 452.288727,358.769257 476.365906,363.636597 
M505.751129,940.301208 
	C510.740601,922.281189 511.095062,904.102417 506.905121,885.947937 
	C498.537415,849.691833 475.676788,825.729553 442.180725,811.276550 
	C422.616760,802.835022 401.839539,800.129639 380.708282,800.071960 
	C336.397675,799.951111 292.086517,800.005676 247.775604,800.037964 
	C245.238876,800.039795 242.702469,800.487793 240.260406,800.719177 
	C240.260406,870.614319 240.260406,939.761780 240.260406,1009.829407 
	C243.407700,1009.829407 246.008636,1009.830750 248.609573,1009.829224 
	C293.586761,1009.802307 338.573090,1010.285583 383.536346,1009.480835 
	C400.065186,1009.184937 416.838257,1007.192322 432.977234,1003.615479 
	C467.652191,995.930542 493.542236,976.874939 505.751129,940.301208 
M466.273285,641.154785 
	C479.319336,622.993408 483.195679,602.419556 482.206940,580.568176 
	C480.829803,550.133606 467.540314,526.370117 441.999420,509.741241 
	C422.140015,496.811401 399.799561,491.768188 376.495605,491.513275 
	C332.869568,491.036011 289.236115,491.228638 245.605713,491.171631 
	C244.007019,491.169525 242.407913,491.472687 240.938019,491.620636 
	C238.885147,502.090973 239.227432,678.943726 241.272812,686.236328 
	C242.868744,686.333374 244.518524,686.521423 246.168274,686.521118 
	C286.468781,686.513000 326.770386,686.635681 367.069000,686.347046 
	C376.338959,686.280640 385.748871,685.567078 394.835175,683.810486 
	C423.161774,678.334351 447.621216,665.860962 466.273285,641.154785 
z"/>
<path fill="#010101" opacity="1.000000" stroke="none" 
	d="
M3808.222656,969.790649 
	C3759.887451,830.907043 3711.770508,692.781006 3663.429688,554.011963 
	C3721.421875,554.011963 3778.348145,554.011963 3836.015625,554.011963 
	C3839.221924,565.050720 3842.529297,576.144409 3845.667480,587.285767 
	C3882.549072,718.228088 3919.404541,849.177795 3956.272949,980.123901 
	C3956.903564,982.364441 3957.296143,984.754089 3958.389404,986.751343 
	C3959.035889,987.932007 3960.869141,989.164917 3962.119629,989.115845 
	C3963.376709,989.066528 3964.983154,987.695862 3965.694580,986.472717 
	C3966.670654,984.794983 3966.974609,982.718445 3967.520264,980.799561 
	C4006.998047,841.951172 4046.471436,703.101562 4085.946777,564.252502 
	C4086.852539,561.067017 4087.783447,557.888672 4088.848633,554.201416 
	C4146.359863,554.201416 4203.901367,554.201416 4262.411133,554.201416 
	C4261.435059,557.532837 4260.681641,560.617432 4259.636230,563.599487 
	C4192.059082,756.313049 4124.464844,949.020752 4056.853271,1141.722290 
	C4047.162842,1169.340698 4037.978027,1197.155884 4027.503418,1224.475220 
	C4010.069092,1269.946533 3982.305908,1308.068848 3943.239990,1337.502808 
	C3916.312744,1357.790771 3885.522217,1368.812744 3852.454834,1373.911255 
	C3827.316162,1377.787231 3802.074463,1378.706421 3776.739258,1376.016479 
	C3753.193848,1373.516479 3730.172119,1368.925659 3707.351318,1359.184937 
	C3719.609375,1316.777710 3731.759277,1274.744629 3744.032471,1232.285278 
	C3754.285156,1234.446899 3763.854004,1237.325439 3773.613770,1238.307007 
	C3786.135254,1239.566284 3798.846924,1240.077515 3811.409180,1239.483276 
	C3825.245117,1238.828979 3836.837158,1232.260620 3846.318604,1222.119751 
	C3856.035400,1211.726807 3862.551514,1199.433228 3867.507080,1186.245972 
	C3870.312744,1178.780762 3874.894287,1171.245605 3874.975586,1163.702026 
	C3875.056641,1156.174194 3870.613525,1148.563477 3867.991211,1141.045898 
	C3848.163818,1084.205444 3828.295898,1027.379028 3808.222656,969.790649 
z"/>
<path fill="#1565FF" opacity="1.000000" stroke="none" 
	d="
M766.568604,903.222656 
	C762.997314,870.432373 762.585449,838.497803 766.059998,806.590332 
	C773.083191,742.095703 794.578552,683.513794 838.423218,634.599121 
	C876.068176,592.600952 923.109131,566.432068 977.989563,554.029785 
	C1009.742371,546.854126 1041.958984,544.793213 1074.322876,546.393005 
	C1126.699951,548.981995 1176.168213,561.761108 1220.812256,590.473328 
	C1261.657349,616.742310 1292.201294,652.060059 1313.677979,695.399292 
	C1333.479614,735.358276 1343.179810,777.899719 1346.192749,822.218628 
	C1349.244629,867.113586 1346.255005,911.445740 1334.077759,954.860840 
	C1317.014648,1015.695923 1285.160278,1066.798340 1233.698120,1104.656616 
	C1198.694702,1130.407104 1159.468262,1146.096313 1116.751465,1153.231445 
	C1075.319580,1160.151978 1033.695068,1160.629028 992.478516,1152.781860 
	C881.840210,1131.718140 811.159912,1065.657471 778.224365,958.739624 
	C772.768066,941.026978 770.456848,922.345520 766.568604,903.222656 
M1124.727417,1007.810547 
	C1132.716675,998.488464 1141.747070,989.855530 1148.471558,979.696289 
	C1161.266479,960.366150 1168.981445,938.664978 1173.795532,916.009094 
	C1181.419556,880.128540 1182.206421,843.925354 1177.631470,807.654846 
	C1173.886841,777.969299 1165.124756,749.784546 1149.650879,723.940613 
	C1133.206665,696.475952 1109.973633,678.296448 1077.908325,673.195129 
	C1067.794800,671.586121 1057.301636,671.355042 1047.045166,671.835266 
	C1012.482971,673.453918 985.224670,688.662537 965.822388,717.454529 
	C953.795044,735.302490 945.568726,754.902771 940.005798,775.626465 
	C930.198792,812.160706 929.124146,849.387756 932.754578,886.717957 
	C935.742676,917.442688 943.892334,946.833862 959.214172,974.025330 
	C992.912842,1033.829956 1068.280518,1049.824097 1124.727417,1007.810547 
z"/>
<path fill="#1565FF" opacity="1.000000" stroke="none" 
	d="
M1447.577148,966.484802 
	C1438.205811,937.346619 1433.426392,908.207581 1431.740479,878.483643 
	C1429.271118,834.948242 1432.175049,791.897766 1443.928223,749.776062 
	C1463.220947,680.632141 1501.260010,624.884094 1563.075317,586.929504 
	C1595.837036,566.813782 1631.740356,555.139526 1669.841919,549.793213 
	C1705.733154,544.757019 1741.578857,544.391174 1777.342407,550.001160 
	C1869.440186,564.447815 1938.449829,611.523865 1980.795410,695.542725 
	C1999.311035,732.279968 2008.850708,771.519775 2012.473633,812.392517 
	C2016.144531,853.809570 2015.047485,895.001404 2005.950439,935.616760 
	C1985.307251,1027.783081 1935.033569,1096.769531 1846.933960,1135.201050 
	C1819.596680,1147.126343 1790.689575,1153.481689 1760.987549,1156.367554 
	C1719.525269,1160.395996 1678.378784,1158.593384 1638.023560,1148.144653 
	C1550.760010,1125.550171 1490.324585,1071.802612 1455.689209,988.801147 
	C1452.746460,981.748901 1450.424438,974.437561 1447.577148,966.484802 
M1838.182373,927.071838 
	C1838.729248,925.152222 1839.365845,923.253113 1839.809692,921.309937 
	C1847.897461,885.900085 1849.605103,850.104126 1845.608521,814.076660 
	C1842.502930,786.081482 1835.531128,759.110535 1822.362061,733.978943 
	C1813.931152,717.889465 1803.754883,703.181885 1789.127441,692.036743 
	C1767.993652,675.934143 1743.843262,670.624878 1717.693726,671.568054 
	C1678.555542,672.979675 1649.043701,690.340942 1628.905273,723.790588 
	C1616.761719,743.960815 1608.731689,765.745239 1604.053467,788.765991 
	C1597.568604,820.677551 1596.553711,852.834473 1599.817261,885.202332 
	C1603.130981,918.069153 1611.592773,949.301392 1628.582397,977.887939 
	C1637.923950,993.606201 1649.949463,1006.766907 1665.834229,1016.139709 
	C1690.580200,1030.741089 1717.371704,1032.997314 1745.064209,1028.845337 
	C1773.367432,1024.601807 1794.937012,1009.493591 1811.278687,986.456604 
	C1823.751099,968.874023 1831.971924,949.303345 1838.182373,927.071838 
z"/>
<path fill="#1565FF" opacity="1.000000" stroke="none" 
	d="
M2164.514893,1099.498901 
	C2127.251221,1068.706055 2105.178467,1029.892578 2096.936035,983.098755 
	C2096.491699,980.576477 2096.438232,977.985352 2096.136963,974.711060 
	C2149.994141,971.878174 2203.144531,969.082520 2256.925049,966.253662 
	C2257.643311,968.294006 2258.383789,970.055542 2258.888672,971.882324 
	C2268.446289,1006.456787 2291.805420,1026.498657 2325.846436,1034.910156 
	C2353.554932,1041.756958 2381.340820,1041.322021 2408.875244,1033.829834 
	C2423.191406,1029.934326 2436.265869,1023.443848 2446.887695,1012.723389 
	C2467.582764,991.836609 2466.424072,963.418701 2443.933838,944.350464 
	C2431.171631,933.530212 2415.927246,927.542175 2399.894531,923.994385 
	C2370.973633,917.594482 2341.906982,911.845520 2312.869873,905.979736 
	C2281.871582,899.717896 2250.736328,894.071838 2221.200928,882.143066 
	C2193.060791,870.777710 2167.293213,855.855652 2146.968262,832.833374 
	C2126.909668,810.112976 2115.885010,783.228699 2112.749512,753.346130 
	C2109.766846,724.923157 2111.566162,696.785278 2121.627441,669.610840 
	C2135.327637,632.607117 2161.001709,606.036072 2194.214844,586.014832 
	C2226.979004,566.264404 2262.803711,555.374512 2300.431641,550.175232 
	C2345.618408,543.931396 2390.801514,544.289246 2435.823486,551.976501 
	C2485.281494,560.421143 2529.708252,579.205261 2565.315186,615.788574 
	C2591.720459,642.917786 2606.972412,675.661621 2613.754395,712.612122 
	C2614.281738,715.485962 2614.337158,718.446472 2614.736328,722.687073 
	C2564.654297,725.805237 2515.288330,728.878845 2465.958740,731.950134 
	C2465.169434,730.756042 2464.417725,730.035889 2464.161133,729.169250 
	C2453.560303,693.385864 2429.265625,672.286133 2393.259277,665.181152 
	C2362.047363,659.022095 2331.517578,661.883606 2303.039551,677.417725 
	C2289.682373,684.703796 2279.322510,694.806152 2276.008301,710.304443 
	C2271.208252,732.750977 2280.381836,753.184265 2301.516846,763.683594 
	C2313.922607,769.846313 2327.268311,774.864624 2340.750488,777.966980 
	C2375.776855,786.027039 2411.072754,792.940857 2446.334961,799.941467 
	C2482.743652,807.169617 2518.337158,816.699646 2551.063965,834.857605 
	C2570.805176,845.810608 2588.225098,859.612183 2601.886475,877.746948 
	C2621.314697,903.537292 2628.910889,932.935181 2628.620850,964.900757 
	C2628.082275,1024.282349 2600.609375,1069.178833 2554.361328,1104.009399 
	C2520.363525,1129.614014 2481.453857,1144.116211 2440.031494,1151.447754 
	C2377.231689,1162.563110 2314.660645,1161.019653 2252.863525,1144.020386 
	C2220.692139,1135.170898 2191.230957,1120.815063 2164.514893,1099.498901 
z"/>
<path fill="#010101" opacity="1.000000" stroke="none" 
	d="
M3170.394043,607.999756 
	C3170.418457,524.343933 3170.441650,441.688141 3170.490234,359.032349 
	C3170.490723,358.418427 3170.836182,357.804688 3171.225586,356.506714 
	C3226.163818,356.506714 3281.313232,356.506714 3337.530762,356.506714 
	C3337.530762,573.316772 3337.530762,790.399658 3337.530762,1008.322754 
	C3450.737549,1008.322754 3562.884033,1008.322754 3674.789551,1008.322754 
	C3677.038086,1016.284241 3677.772461,1127.108765 3675.878906,1145.835449 
	C3507.781738,1145.835449 3339.633057,1145.835449 3170.394043,1145.835449 
	C3170.394043,966.740173 3170.394043,787.869995 3170.394043,607.999756 
z"/>
<path fill="#1564FF" opacity="1.000000" stroke="none" 
	d="
M2936.324219,452.000549 
	C2936.324219,485.980347 2936.324219,518.960388 2936.324219,553.185364 
	C2945.800293,554.152405 2955.017334,553.542419 2964.178223,553.651672 
	C2973.508301,553.762878 2982.840576,553.676147 2992.171875,553.676147 
	C3001.169922,553.676147 3010.167969,553.676147 3019.166016,553.676147 
	C3028.432129,553.676147 3037.698242,553.676147 3047.553711,553.676147 
	C3047.553711,594.976501 3047.553711,635.457458 3047.553711,676.935669 
	C3010.841064,676.935669 2974.301514,676.935669 2937.122314,676.935669 
	C2936.799072,680.403748 2936.355225,682.947510 2936.354248,685.491394 
	C2936.322510,778.137878 2936.250000,870.784546 2936.471191,963.430542 
	C2936.491699,972.002136 2937.900879,980.670898 2939.568848,989.116028 
	C2942.559326,1004.257507 2952.405029,1013.433838 2966.758545,1018.267944 
	C2980.695312,1022.961487 2994.912842,1022.869324 3009.234131,1020.960388 
	C3017.037109,1019.920349 3024.804688,1018.614624 3033.225586,1017.331604 
	C3041.819336,1058.204590 3050.219971,1098.159790 3058.893311,1139.412476 
	C3045.648438,1142.710571 3033.260986,1146.407471 3020.629150,1148.829956 
	C2975.926758,1157.403198 2931.200928,1158.253296 2886.979004,1146.103760 
	C2852.048584,1136.506836 2821.852051,1119.096558 2800.229492,1089.050781 
	C2784.866943,1067.703369 2776.912598,1043.474365 2774.183350,1017.592468 
	C2772.720459,1003.715759 2772.231201,989.681458 2772.207520,975.716736 
	C2772.044678,880.404419 2772.122070,785.091675 2772.122070,689.779114 
	C2772.122070,685.880066 2772.122070,681.980957 2772.122070,677.196716 
	C2744.752930,677.196716 2718.551758,677.196716 2691.597168,677.196716 
	C2691.597168,635.857361 2691.597168,595.416321 2691.597168,553.818176 
	C2718.117432,553.818176 2744.567139,553.818176 2771.883789,553.818176 
	C2771.883789,506.172821 2771.883789,459.670410 2771.883789,412.426208 
	C2826.863281,412.426208 2880.954590,412.426208 2936.323975,412.426208 
	C2936.323975,425.253845 2936.323975,438.127289 2936.324219,452.000549 
z"/>
<path fill="#FFAD34" opacity="1.000000" stroke="none" 
	d="
M4650.175781,544.104614 
	C4612.229004,617.808533 4574.596191,690.837891 4536.082031,765.577393 
	C4541.269043,765.814575 4544.717285,766.108154 4548.165039,766.109680 
	C4610.471191,766.137451 4672.777832,766.129578 4735.083984,766.130920 
	C4738.082520,766.130981 4741.087402,766.024475 4744.078613,766.176270 
	C4753.716797,766.665527 4759.298340,770.404053 4761.601074,778.289795 
	C4763.894531,786.144043 4761.476562,792.192261 4755.076660,797.649414 
	C4724.152344,824.018372 4693.502441,850.708618 4662.779785,877.313171 
	C4605.111816,927.251526 4547.408203,977.148865 4489.821289,1027.180908 
	C4453.107422,1059.078003 4416.556152,1091.162598 4379.986816,1123.225830 
	C4374.439453,1128.089233 4368.291016,1131.023193 4360.859375,1129.809326 
	C4349.089844,1127.887207 4343.588379,1116.934570 4349.182617,1105.599365 
	C4359.203125,1085.294678 4369.688965,1065.218628 4380.064453,1045.090332 
	C4408.444336,990.033569 4436.875488,935.003479 4465.244141,879.941101 
	C4466.408691,877.680481 4467.146484,875.200195 4468.680664,871.305420 
	C4463.939453,871.305420 4460.410156,871.305420 4456.880859,871.305420 
	C4394.907715,871.305359 4332.935059,871.320251 4270.961914,871.272583 
	C4266.648438,871.269287 4262.301758,871.056335 4258.029297,870.492859 
	C4250.195801,869.459595 4245.781738,864.552551 4243.564941,857.175110 
	C4241.423340,850.045532 4244.400391,844.909363 4249.518555,840.475891 
	C4294.085938,801.871033 4338.675293,763.291260 4383.228027,724.669434 
	C4436.842285,678.192688 4490.463379,631.723633 4544.009277,585.168396 
	C4571.411133,561.343811 4598.646973,537.329285 4625.977539,513.422791 
	C4632.083984,508.081757 4639.017578,505.406616 4647.124512,507.870117 
	C4656.487305,510.714935 4661.021484,518.977478 4657.810059,528.145996 
	C4655.954102,533.445312 4652.966797,538.348511 4650.175781,544.104614 
z"/>
<path fill="#FEFEFF" opacity="1.000000" stroke="none" 
	d="
M505.536041,941.073486 
	C493.542236,976.874939 467.652191,995.930542 432.977234,1003.615479 
	C416.838257,1007.192322 400.065186,1009.184937 383.536346,1009.480835 
	C338.573090,1010.285583 293.586761,1009.802307 248.609573,1009.829224 
	C246.008636,1009.830750 243.407700,1009.829407 240.260406,1009.829407 
	C240.260406,939.761780 240.260406,870.614319 240.260406,800.719177 
	C242.702469,800.487793 245.238876,800.039795 247.775604,800.037964 
	C292.086517,800.005676 336.397675,799.951111 380.708282,800.071960 
	C401.839539,800.129639 422.616760,802.835022 442.180725,811.276550 
	C475.676788,825.729553 498.537415,849.691833 506.905121,885.947937 
	C511.095062,904.102417 510.740601,922.281189 505.536041,941.073486 
z"/>
<path fill="#FEFFFF" opacity="1.000000" stroke="none" 
	d="
M465.879272,641.756226 
	C447.621216,665.860962 423.161774,678.334351 394.835175,683.810486 
	C385.748871,685.567078 376.338959,686.280640 367.069000,686.347046 
	C326.770386,686.635681 286.468781,686.513000 246.168274,686.521118 
	C244.518524,686.521423 242.868744,686.333374 241.272812,686.236328 
	C239.227432,678.943726 238.885147,502.090973 240.938019,491.620636 
	C242.407913,491.472687 244.007019,491.169525 245.605713,491.171631 
	C289.236115,491.228638 332.869568,491.036011 376.495605,491.513275 
	C399.799561,491.768188 422.140015,496.811401 441.999420,509.741241 
	C467.540314,526.370117 480.829803,550.133606 482.206940,580.568176 
	C483.195679,602.419556 479.319336,622.993408 465.879272,641.756226 
z"/>
<path fill="#FEFEFF" opacity="1.000000" stroke="none" 
	d="
M1124.171875,1008.260010 
	C1068.280518,1049.824097 992.912842,1033.829956 959.214172,974.025330 
	C943.892334,946.833862 935.742676,917.442688 932.754578,886.717957 
	C929.124146,849.387756 930.198792,812.160706 940.005798,775.626465 
	C945.568726,754.902771 953.795044,735.302490 965.822388,717.454529 
	C985.224670,688.662537 1012.482971,673.453918 1047.045166,671.835266 
	C1057.301636,671.355042 1067.794800,671.586121 1077.908325,673.195129 
	C1109.973633,678.296448 1133.206665,696.475952 1149.650879,723.940613 
	C1165.124756,749.784546 1173.886841,777.969299 1177.631470,807.654846 
	C1182.206421,843.925354 1181.419556,880.128540 1173.795532,916.009094 
	C1168.981445,938.664978 1161.266479,960.366150 1148.471558,979.696289 
	C1141.747070,989.855530 1132.716675,998.488464 1124.171875,1008.260010 
z"/>
<path fill="#FEFEFF" opacity="1.000000" stroke="none" 
	d="
M1838.015137,927.871338 
	C1831.971924,949.303345 1823.751099,968.874023 1811.278687,986.456604 
	C1794.937012,1009.493591 1773.367432,1024.601807 1745.064209,1028.845337 
	C1717.371704,1032.997314 1690.580200,1030.741089 1665.834229,1016.139709 
	C1649.949463,1006.766907 1637.923950,993.606201 1628.582397,977.887939 
	C1611.592773,949.301392 1603.130981,918.069153 1599.817261,885.202332 
	C1596.553711,852.834473 1597.568604,820.677551 1604.053467,788.765991 
	C1608.731689,765.745239 1616.761719,743.960815 1628.905273,723.790588 
	C1649.043701,690.340942 1678.555542,672.979675 1717.693726,671.568054 
	C1743.843262,670.624878 1767.993652,675.934143 1789.127441,692.036743 
	C1803.754883,703.181885 1813.931152,717.889465 1822.362061,733.978943 
	C1835.531128,759.110535 1842.502930,786.081482 1845.608521,814.076660 
	C1849.605103,850.104126 1847.897461,885.900085 1839.809692,921.309937 
	C1839.365845,923.253113 1838.729248,925.152222 1838.015137,927.871338 
z"/>
</svg>