<svg version="1.1" id="Layer_1" xmlns="http://www.w3.org/2000/svg" xmlns:xlink="http://www.w3.org/1999/xlink" x="0px" y="0px"
	 width="100%" viewBox="0 0 5000 1500" enable-background="new 0 0 5000 1500" xml:space="preserve">
<path fill="#FFFFFF" opacity="1.000000" stroke="none" 
	d="
M3632.000000,1502.000000 
	C2421.333496,1502.000000 1211.667114,1502.000000 2.000487,1502.000000 
	C2.000325,1002.000305 2.000325,502.000610 2.000162,2.000688 
	C1668.666016,2.000459 3335.332031,2.000459 5001.998535,2.000229 
	C5001.999023,501.999298 5001.999023,1001.998596 5001.999512,1501.999023 
	C4545.666504,1502.000000 4089.333252,1502.000000 3632.000000,1502.000000 
M603.421631,769.523804 
	C575.124146,749.933655 543.771729,739.055847 509.543610,737.382690 
	C508.875488,729.812134 508.835114,729.649536 515.198364,728.069092 
	C536.730164,722.721252 556.882019,714.144592 575.459717,702.058228 
	C605.280396,682.657349 628.611938,657.626343 640.814453,623.630981 
	C650.528015,596.569946 652.972656,568.605713 650.421326,539.956482 
	C646.813110,499.439850 632.104248,463.903839 605.176086,433.367096 
	C576.423462,400.761475 539.981018,381.224030 498.572906,369.895355 
	C461.945557,359.874664 424.461639,356.979279 386.740540,356.892212 
	C285.411499,356.658295 184.081573,356.802673 82.751999,356.824860 
	C79.506889,356.825562 76.261841,357.132050 73.147980,357.289368 
	C72.696777,359.089142 72.255119,360.028351 72.254936,360.967651 
	C72.202995,621.290771 72.181023,881.613892 72.176292,1141.937012 
	C72.176262,1143.258179 72.401184,1144.583496 72.589027,1145.897217 
	C72.628723,1146.174805 72.955246,1146.420288 73.170540,1146.661743 
	C73.391983,1146.910156 73.638985,1147.135742 74.357964,1147.854004 
	C77.856697,1147.854004 81.840462,1147.854004 85.824234,1147.854004 
	C187.487137,1147.854004 289.150238,1147.962158 390.812744,1147.765015 
	C411.788513,1147.724243 432.817749,1147.290405 453.724213,1145.726196 
	C489.485474,1143.050537 524.147583,1135.209106 556.960815,1120.258301 
	C598.010132,1101.555054 631.996582,1074.665161 654.925354,1035.143066 
	C675.221375,1000.159058 683.078308,962.182007 682.049255,922.009338 
	C680.436157,859.034546 655.527283,808.059387 603.421631,769.523804 
M3795.055908,1378.312622 
	C3816.745850,1378.827026 3838.329102,1377.996582 3859.731934,1373.974854 
	C3897.205566,1366.933228 3930.594971,1351.781006 3959.025635,1325.892212 
	C3993.314697,1294.668335 4017.035400,1256.814819 4032.267578,1213.223877 
	C4065.188477,1119.013306 4098.365234,1024.892212 4131.396973,930.720459 
	C4174.118652,808.922729 4216.804688,687.112244 4259.482910,565.299194 
	C4260.622070,562.048706 4261.498535,558.706360 4262.608887,555.039673 
	C4203.937988,555.039673 4146.690918,555.039673 4089.218994,555.039673 
	C4088.180176,558.182922 4087.148926,560.957581 4086.341553,563.796082 
	C4052.848633,681.548096 4019.381592,799.307678 3985.894043,917.061340 
	C3979.524414,939.459595 3973.018555,961.819458 3966.729492,984.240234 
	C3965.501465,988.617981 3964.227783,991.935730 3958.560303,988.933167 
	C3917.756104,844.358337 3876.928711,699.702332 3836.067139,554.924194 
	C3778.463135,554.924194 3721.583740,554.924194 3663.465332,554.924194 
	C3664.800293,558.911804 3665.889893,562.286255 3667.056641,565.633667 
	C3733.957031,757.564026 3800.867676,949.490662 3867.754883,1141.425659 
	C3870.487305,1149.266846 3875.129150,1157.216675 3875.013672,1165.058960 
	C3874.897949,1172.914185 3869.989502,1180.720825 3867.072266,1188.507812 
	C3862.241211,1201.403687 3855.751709,1213.328125 3846.205811,1223.413574 
	C3837.198730,1232.929810 3826.317627,1238.414673 3813.251953,1240.571899 
	C3792.280518,1244.034668 3772.170654,1240.058350 3752.036621,1235.203979 
	C3749.560791,1234.607178 3747.038818,1234.201294 3744.000977,1233.600586 
	C3731.684814,1276.237061 3719.551025,1318.242310 3707.298584,1360.658813 
	C3735.717529,1371.749146 3763.865967,1377.553833 3795.055908,1378.312622 
M1010.362305,1156.733154 
	C1060.592651,1162.715332 1110.093872,1159.682373 1158.498901,1144.286133 
	C1198.582153,1131.536865 1233.592285,1110.184692 1263.355469,1080.518066 
	C1298.398315,1045.588745 1321.028687,1003.403137 1334.127319,955.989380 
	C1346.131958,912.535278 1349.337524,868.235901 1346.206909,823.326355 
	C1343.117798,779.012451 1333.612793,736.381958 1313.550537,696.540222 
	C1276.054932,622.076782 1216.372559,575.286011 1135.466553,555.924927 
	C1089.565552,544.940613 1043.037842,544.121399 996.586304,551.921997 
	C896.931580,568.656921 827.376709,623.956360 788.246582,717.080444 
	C774.996094,748.614868 768.199463,781.807434 765.406067,815.899963 
	C761.203186,867.193359 763.795776,917.978333 780.252136,966.978760 
	C817.185608,1076.951904 893.448608,1140.339844 1010.362305,1156.733154 
M1491.424927,1053.543091 
	C1528.073242,1101.127930 1575.411987,1132.678101 1633.415527,1148.255249 
	C1685.521851,1162.248535 1738.367432,1163.829590 1790.854126,1153.041870 
	C1902.155884,1130.166016 1971.315918,1061.348877 2001.972534,952.987061 
	C2014.813843,907.597473 2016.536987,861.114502 2012.518921,814.268005 
	C2009.099243,774.396729 1999.861816,736.134583 1982.358154,700.033142 
	C1945.427368,623.862427 1885.430908,576.124573 1803.482666,556.047791 
	C1760.272949,545.461670 1716.399780,544.765808 1672.435547,550.393555 
	C1633.326050,555.399841 1596.479492,567.440002 1562.811157,588.252380 
	C1495.725586,629.721802 1457.250732,691.090759 1440.041382,766.784241 
	C1429.753662,812.033325 1428.515869,857.856079 1433.908569,903.876465 
	C1440.267944,958.145508 1457.842163,1008.167969 1491.424927,1053.543091 
M2161.059326,612.047974 
	C2139.082764,632.603882 2124.208252,657.371094 2116.729980,686.565369 
	C2111.714111,706.146729 2110.772705,726.082764 2112.055664,746.095459 
	C2114.894287,790.365234 2133.147705,826.736877 2168.527832,854.073792 
	C2193.727783,873.545044 2222.338867,886.184387 2252.940430,893.721436 
	C2284.259033,901.435059 2316.042969,907.249207 2347.595703,914.023254 
	C2368.406738,918.491211 2389.287354,922.720520 2409.910400,927.949158 
	C2422.876953,931.236572 2434.907471,937.216675 2445.076416,946.238037 
	C2466.196045,964.974304 2467.227783,993.241699 2447.531982,1013.393677 
	C2436.003662,1025.189087 2421.588135,1031.803467 2405.910645,1035.997803 
	C2387.317871,1040.972168 2368.336426,1041.092651 2349.336426,1040.003784 
	C2332.187500,1039.020996 2315.853027,1034.666260 2300.610596,1026.576050 
	C2281.824463,1016.605225 2268.886719,1001.552795 2261.681885,981.570801 
	C2260.117920,977.233093 2258.739014,972.828613 2256.961182,967.517334 
	C2203.471436,970.336365 2150.062744,973.151184 2097.003418,975.947632 
	C2096.523438,977.661255 2096.266846,978.270630 2096.200439,978.900024 
	C2096.131592,979.553772 2096.182373,980.237549 2096.290527,980.890015 
	C2102.708740,1019.648010 2118.122314,1054.066895 2145.370361,1082.804932 
	C2177.593506,1116.790527 2217.666016,1136.827271 2262.508057,1147.878052 
	C2304.508545,1158.228760 2347.163574,1161.305908 2390.406494,1158.606201 
	C2427.591553,1156.284790 2463.680908,1149.616455 2498.417969,1136.051147 
	C2536.097168,1121.337036 2568.406738,1099.097900 2593.695312,1067.270874 
	C2620.937988,1032.984619 2631.127686,993.567444 2628.127441,950.336609 
	C2626.651611,929.069336 2620.761475,909.129272 2609.794189,890.775208 
	C2593.875000,864.134644 2570.502197,845.871948 2543.330566,831.977051 
	C2517.048096,818.536804 2489.037109,810.106567 2460.260010,804.115356 
	C2421.165527,795.976074 2381.982178,788.257568 2342.916992,779.981812 
	C2326.589111,776.522827 2310.682373,771.463196 2296.560547,762.143921 
	C2269.241943,744.115601 2266.868652,706.849243 2292.222412,686.352417 
	C2299.600586,680.387695 2308.382812,675.745850 2317.166260,672.015259 
	C2338.575684,662.921875 2361.359619,661.829041 2383.996338,664.634888 
	C2424.404053,669.643433 2452.190430,690.944458 2464.341553,730.771606 
	C2464.518311,731.350464 2465.091797,731.808289 2466.027832,733.048462 
	C2515.136719,730.172668 2564.739746,727.244690 2614.768066,723.732056 
	C2612.763916,702.561890 2607.269287,683.783081 2598.786621,665.953796 
	C2573.109375,611.984009 2529.553955,578.833069 2473.427002,562.112488 
	C2406.935059,542.304138 2339.395996,542.259521 2271.879639,556.767517 
	C2230.871338,565.579285 2193.597656,582.690796 2161.059326,612.047974 
M3170.394043,746.999817 
	C3170.394043,880.463623 3170.394043,1013.927490 3170.394043,1147.154541 
	C3339.964355,1147.154541 3508.060547,1147.154541 3676.137939,1147.154541 
	C3676.137939,1101.263306 3676.137939,1056.064331 3676.137939,1009.802124 
	C3563.256592,1009.802124 3450.852783,1009.802124 3337.870605,1009.802124 
	C3337.870605,900.156006 3337.870850,791.575500 3337.870850,682.994995 
	C3337.870850,574.549622 3337.870605,466.104187 3337.870605,357.617889 
	C3281.308594,357.617889 3226.142822,357.617889 3171.155273,357.617889 
	C3170.794922,358.883331 3170.459961,359.510651 3170.459961,360.138092 
	C3170.422607,488.425323 3170.408691,616.712524 3170.394043,746.999817 
M2690.781982,577.093018 
	C2690.906494,610.069153 2691.029785,643.045288 2691.178467,676.021301 
	C2691.179688,676.300781 2691.496338,676.600159 2691.711182,676.851196 
	C2691.916748,677.091431 2692.182129,677.280396 2693.419678,678.375488 
	C2718.564941,678.375488 2744.776611,678.375488 2772.118408,678.375488 
	C2772.118408,683.058411 2772.118408,686.962219 2772.118408,690.866028 
	C2772.118164,788.161926 2771.940430,885.458435 2772.293213,982.753052 
	C2772.352051,998.992798 2773.480713,1015.438599 2776.253174,1031.418213 
	C2783.795654,1074.895874 2806.562988,1108.157959 2845.319824,1130.241455 
	C2874.387451,1146.803955 2905.957520,1153.887451 2938.853027,1155.799683 
	C2969.928711,1157.606201 3000.745605,1154.845581 3031.106445,1147.828125 
	C3040.100342,1145.749268 3048.958740,1143.084717 3058.889893,1140.416992 
	C3050.206299,1099.161011 3041.740479,1058.938110 3033.185547,1018.293884 
	C3027.472168,1019.277100 3022.604248,1020.135315 3017.729004,1020.949890 
	C3003.887451,1023.262390 2990.081543,1024.709351 2976.045166,1022.018372 
	C2954.223389,1017.834656 2941.637939,1005.955078 2938.209961,985.087830 
	C2937.134277,978.538818 2936.419922,971.846619 2936.411621,965.218811 
	C2936.291748,872.254822 2936.316406,779.290527 2936.350098,686.326355 
	C2936.350830,683.793091 2936.847168,681.260010 2937.205078,677.842407 
	C2974.341064,677.842407 3010.834717,677.842407 3047.542480,677.842407 
	C3047.542480,636.419495 3047.542480,595.964355 3047.542480,554.489136 
	C3010.445068,554.489136 2973.949463,554.489136 2936.316406,554.489136 
	C2936.316406,530.255127 2936.316406,507.026062 2936.316406,483.796967 
	C2936.316406,460.294800 2936.316406,436.792603 2936.316406,413.500000 
	C2918.326904,411.302032 2779.444824,412.093903 2771.709229,414.541687 
	C2771.709229,460.740814 2771.709229,507.245453 2771.709229,554.624817 
	C2744.585449,554.624817 2718.390381,554.624817 2690.782959,554.624817 
	C2690.782959,562.032776 2690.782959,568.583862 2690.781982,577.093018 
M4501.349121,622.340942 
	C4494.821289,628.034302 4488.311523,633.749268 4481.762207,639.417419 
	C4434.153320,680.619568 4386.529297,721.803345 4338.925293,763.011108 
	C4309.204590,788.739075 4279.521484,814.511536 4249.793945,840.232422 
	C4244.342773,844.948853 4241.270020,850.302979 4243.729980,857.785950 
	C4246.147461,865.139709 4250.837891,869.733276 4258.650391,870.612732 
	C4262.607910,871.058289 4266.612305,871.274536 4270.595215,871.277161 
	C4332.570312,871.317200 4394.545410,871.295898 4456.520508,871.328674 
	C4460.280762,871.330627 4464.040527,871.667542 4469.166992,871.914368 
	C4466.625000,877.049133 4464.934082,880.587463 4463.139160,884.071838 
	C4426.533203,955.122986 4389.912109,1026.166260 4353.310059,1097.218994 
	C4351.480957,1100.769409 4349.552246,1104.297363 4348.087402,1108.000732 
	C4344.912109,1116.030151 4347.505371,1123.086182 4354.973145,1127.571533 
	C4362.448730,1132.061523 4371.333496,1130.690308 4379.684082,1123.409668 
	C4415.590820,1092.104004 4451.366211,1060.648804 4487.326172,1029.404663 
	C4545.667969,978.713196 4604.107422,928.134460 4662.522949,877.528320 
	C4693.493164,850.698730 4724.520020,823.933960 4755.475098,797.087280 
	C4762.357910,791.118225 4764.060547,785.090637 4761.384766,777.660461 
	C4758.687500,770.171082 4753.078613,766.707581 4745.406250,766.236084 
	C4742.417480,766.052490 4739.411133,766.133850 4736.412598,766.133667 
	C4673.770996,766.129028 4611.129883,766.137695 4548.488281,766.109863 
	C4544.988770,766.108337 4541.488770,765.814880 4536.594727,765.594543 
	C4538.837402,760.780396 4540.356445,757.195374 4542.136719,753.745178 
	C4579.243164,681.828979 4616.384277,609.930481 4653.493164,538.015198 
	C4655.018066,535.060059 4656.566406,532.068970 4657.635254,528.934753 
	C4661.898438,516.439270 4652.274902,505.323334 4639.113281,507.211487 
	C4632.848633,508.110199 4628.162598,511.461517 4623.553223,515.505859 
	C4583.237793,550.880493 4542.821777,586.141174 4501.349121,622.340942 
z"/>
<path fill="#5047E5" opacity="1.000000" stroke="none" 
	d="
M604.029175,769.903442 
	C655.527283,808.059387 680.436157,859.034546 682.049255,922.009338 
	C683.078308,962.182007 675.221375,1000.159058 654.925354,1035.143066 
	C631.996582,1074.665161 598.010132,1101.555054 556.960815,1120.258301 
	C524.147583,1135.209106 489.485474,1143.050537 453.724213,1145.726196 
	C432.817749,1147.290405 411.788513,1147.724243 390.812744,1147.765015 
	C289.150238,1147.962158 187.487137,1147.854004 85.824234,1147.854004 
	C81.840462,1147.854004 77.856697,1147.854004 74.357964,1147.854004 
	C73.638985,1147.135742 73.391983,1146.910156 73.170540,1146.661743 
	C72.955246,1146.420288 72.628723,1146.174805 72.589027,1145.897217 
	C72.401184,1144.583496 72.176262,1143.258179 72.176292,1141.937012 
	C72.181023,881.613892 72.202995,621.290771 72.254936,360.967651 
	C72.255119,360.028351 72.696777,359.089142 73.147980,357.289368 
	C76.261841,357.132050 79.506889,356.825562 82.751999,356.824860 
	C184.081573,356.802673 285.411499,356.658295 386.740540,356.892212 
	C424.461639,356.979279 461.945557,359.874664 498.572906,369.895355 
	C539.981018,381.224030 576.423462,400.761475 605.176086,433.367096 
	C632.104248,463.903839 646.813110,499.439850 650.421326,539.956482 
	C652.972656,568.605713 650.528015,596.569946 640.814453,623.630981 
	C628.611938,657.626343 605.280396,682.657349 575.459717,702.058228 
	C556.882019,714.144592 536.730164,722.721252 515.198364,728.069092 
	C508.835114,729.649536 508.875488,729.812134 509.543610,737.382690 
	C543.771729,739.055847 575.124146,749.933655 604.029175,769.903442 
M267.011230,801.194275 
	C258.157166,801.194275 249.303070,801.194275 240.361908,801.194275 
	C240.361908,871.776855 240.361908,940.896362 240.361908,1010.161865 
	C242.302338,1010.424255 243.589661,1010.751892 244.876526,1010.750061 
	C294.191498,1010.681458 343.510040,1010.900513 392.819794,1010.345154 
	C415.261414,1010.092407 437.209381,1006.054749 457.772095,996.397522 
	C478.535065,986.646118 493.847992,971.429688 502.467926,950.090881 
	C519.210938,908.643127 509.376923,848.061035 453.283997,817.522522 
	C434.214355,807.140503 413.562073,802.000549 391.954742,801.740173 
	C350.975708,801.246460 309.989594,801.342468 267.011230,801.194275 
M471.519409,634.273315 
	C480.421844,617.620789 483.220978,599.733093 482.214905,581.095032 
	C480.549713,550.246155 466.632446,526.493530 440.530121,510.044067 
	C420.161224,497.207764 397.287689,492.743500 373.745789,492.423187 
	C331.771790,491.852051 289.785217,492.188202 247.803925,492.197510 
	C245.264450,492.198090 242.725067,492.659973 240.322815,492.893860 
	C240.322815,558.150757 240.322815,622.633118 240.322815,687.989197 
	C243.887009,687.989197 246.812500,687.989441 249.737991,687.989136 
	C287.388062,687.985352 325.038940,688.112610 362.687683,687.884644 
	C371.976440,687.828430 381.391724,687.384949 390.519318,685.798706 
	C423.997070,679.980896 452.466705,665.788391 471.519409,634.273315 
z"/>
<path fill="#010101" opacity="1.000000" stroke="none" 
	d="
M3794.068359,1378.287354 
	C3763.865967,1377.553833 3735.717529,1371.749146 3707.298584,1360.658813 
	C3719.551025,1318.242310 3731.684814,1276.237061 3744.000977,1233.600586 
	C3747.038818,1234.201294 3749.560791,1234.607178 3752.036621,1235.203979 
	C3772.170654,1240.058350 3792.280518,1244.034668 3813.251953,1240.571899 
	C3826.317627,1238.414673 3837.198730,1232.929810 3846.205811,1223.413574 
	C3855.751709,1213.328125 3862.241211,1201.403687 3867.072266,1188.507812 
	C3869.989502,1180.720825 3874.897949,1172.914185 3875.013672,1165.058960 
	C3875.129150,1157.216675 3870.487305,1149.266846 3867.754883,1141.425659 
	C3800.867676,949.490662 3733.957031,757.564026 3667.056641,565.633667 
	C3665.889893,562.286255 3664.800293,558.911804 3663.465332,554.924194 
	C3721.583740,554.924194 3778.463135,554.924194 3836.067139,554.924194 
	C3876.928711,699.702332 3917.756104,844.358337 3958.560303,988.933167 
	C3964.227783,991.935730 3965.501465,988.617981 3966.729492,984.240234 
	C3973.018555,961.819458 3979.524414,939.459595 3985.894043,917.061340 
	C4019.381592,799.307678 4052.848633,681.548096 4086.341553,563.796082 
	C4087.148926,560.957581 4088.180176,558.182922 4089.218994,555.039673 
	C4146.690918,555.039673 4203.937988,555.039673 4262.608887,555.039673 
	C4261.498535,558.706360 4260.622070,562.048706 4259.482910,565.299194 
	C4216.804688,687.112244 4174.118652,808.922729 4131.396973,930.720459 
	C4098.365234,1024.892212 4065.188477,1119.013306 4032.267578,1213.223877 
	C4017.035400,1256.814819 3993.314697,1294.668335 3959.025635,1325.892212 
	C3930.594971,1351.781006 3897.205566,1366.933228 3859.731934,1373.974854 
	C3838.329102,1377.996582 3816.745850,1378.827026 3794.068359,1378.287354 
z"/>
<path fill="#5047E5" opacity="1.000000" stroke="none" 
	d="
M1009.474121,1156.610962 
	C893.448608,1140.339844 817.185608,1076.951904 780.252136,966.978760 
	C763.795776,917.978333 761.203186,867.193359 765.406067,815.899963 
	C768.199463,781.807434 774.996094,748.614868 788.246582,717.080444 
	C827.376709,623.956360 896.931580,568.656921 996.586304,551.921997 
	C1043.037842,544.121399 1089.565552,544.940613 1135.466553,555.924927 
	C1216.372559,575.286011 1276.054932,622.076782 1313.550537,696.540222 
	C1333.612793,736.381958 1343.117798,779.012451 1346.206909,823.326355 
	C1349.337524,868.235901 1346.131958,912.535278 1334.127319,955.989380 
	C1321.028687,1003.403137 1298.398315,1045.588745 1263.355469,1080.518066 
	C1233.592285,1110.184692 1198.582153,1131.536865 1158.498901,1144.286133 
	C1110.093872,1159.682373 1060.592651,1162.715332 1009.474121,1156.610962 
M1049.428345,1031.882446 
	C1053.093262,1031.892090 1056.760010,1031.981323 1060.422852,1031.898926 
	C1096.235596,1031.093140 1124.614380,1016.204895 1144.967896,986.661865 
	C1158.149048,967.529724 1166.735962,946.291931 1172.226440,923.779358 
	C1181.662109,885.089539 1182.488403,845.938232 1177.321899,806.682861 
	C1173.510986,777.727600 1164.961548,750.108704 1149.613037,724.984009 
	C1135.401245,701.719849 1116.212158,684.447449 1089.414673,676.939636 
	C1069.490479,671.357605 1049.419189,671.086914 1029.132080,675.348511 
	C1002.290588,680.987000 981.639221,695.508301 966.286133,717.914551 
	C953.919067,735.963196 945.621582,755.862915 939.999084,776.925964 
	C931.047974,810.458740 929.645813,844.609009 932.037354,879.011963 
	C934.133728,909.168091 940.889221,938.172363 954.015198,965.579102 
	C972.925049,1005.062561 1002.909424,1028.772217 1049.428345,1031.882446 
z"/>
<path fill="#5047E5" opacity="1.000000" stroke="none" 
	d="
M1490.982788,1052.976074 
	C1457.842163,1008.167969 1440.267944,958.145508 1433.908569,903.876465 
	C1428.515869,857.856079 1429.753662,812.033325 1440.041382,766.784241 
	C1457.250732,691.090759 1495.725586,629.721802 1562.811157,588.252380 
	C1596.479492,567.440002 1633.326050,555.399841 1672.435547,550.393555 
	C1716.399780,544.765808 1760.272949,545.461670 1803.482666,556.047791 
	C1885.430908,576.124573 1945.427368,623.862427 1982.358154,700.033142 
	C1999.861816,736.134583 2009.099243,774.396729 2012.518921,814.268005 
	C2016.536987,861.114502 2014.813843,907.597473 2001.972534,952.987061 
	C1971.315918,1061.348877 1902.155884,1130.166016 1790.854126,1153.041870 
	C1738.367432,1163.829590 1685.521851,1162.248535 1633.415527,1148.255249 
	C1575.411987,1132.678101 1528.073242,1101.127930 1490.982788,1052.976074 
M1601.954590,902.890930 
	C1605.379395,924.730469 1611.561401,945.727051 1621.250854,965.634705 
	C1630.877686,985.413635 1643.439209,1002.810852 1662.117920,1015.095581 
	C1682.690430,1028.625854 1705.593018,1032.889404 1729.797729,1031.872803 
	C1759.190918,1030.638428 1784.144897,1019.862671 1803.593262,997.414856 
	C1822.604980,975.471191 1833.275269,949.403137 1839.909058,921.592102 
	C1848.259277,886.584656 1849.607056,851.047974 1845.615723,815.372620 
	C1842.257324,785.354431 1834.506226,756.546936 1819.702881,729.923523 
	C1800.682129,695.715332 1772.415649,675.311890 1732.798706,672.829346 
	C1693.435303,670.362549 1659.903198,682.153076 1635.630371,714.971558 
	C1626.037720,727.941650 1618.841553,742.162720 1613.436646,757.278625 
	C1596.669922,804.169617 1594.811035,852.306091 1601.954590,902.890930 
z"/>
<path fill="#5047E5" opacity="1.000000" stroke="none" 
	d="
M2161.563965,611.547852 
	C2193.597656,582.690796 2230.871338,565.579285 2271.879639,556.767517 
	C2339.395996,542.259521 2406.935059,542.304138 2473.427002,562.112488 
	C2529.553955,578.833069 2573.109375,611.984009 2598.786621,665.953796 
	C2607.269287,683.783081 2612.763916,702.561890 2614.768066,723.732056 
	C2564.739746,727.244690 2515.136719,730.172668 2466.027832,733.048462 
	C2465.091797,731.808289 2464.518311,731.350464 2464.341553,730.771606 
	C2452.190430,690.944458 2424.404053,669.643433 2383.996338,664.634888 
	C2361.359619,661.829041 2338.575684,662.921875 2317.166260,672.015259 
	C2308.382812,675.745850 2299.600586,680.387695 2292.222412,686.352417 
	C2266.868652,706.849243 2269.241943,744.115601 2296.560547,762.143921 
	C2310.682373,771.463196 2326.589111,776.522827 2342.916992,779.981812 
	C2381.982178,788.257568 2421.165527,795.976074 2460.260010,804.115356 
	C2489.037109,810.106567 2517.048096,818.536804 2543.330566,831.977051 
	C2570.502197,845.871948 2593.875000,864.134644 2609.794189,890.775208 
	C2620.761475,909.129272 2626.651611,929.069336 2628.127441,950.336609 
	C2631.127686,993.567444 2620.937988,1032.984619 2593.695312,1067.270874 
	C2568.406738,1099.097900 2536.097168,1121.337036 2498.417969,1136.051147 
	C2463.680908,1149.616455 2427.591553,1156.284790 2390.406494,1158.606201 
	C2347.163574,1161.305908 2304.508545,1158.228760 2262.508057,1147.878052 
	C2217.666016,1136.827271 2177.593506,1116.790527 2145.370361,1082.804932 
	C2118.122314,1054.066895 2102.708740,1019.648010 2096.290527,980.890015 
	C2096.182373,980.237549 2096.131592,979.553772 2096.200439,978.900024 
	C2096.266846,978.270630 2096.523438,977.661255 2097.003418,975.947632 
	C2150.062744,973.151184 2203.471436,970.336365 2256.961182,967.517334 
	C2258.739014,972.828613 2260.117920,977.233093 2261.681885,981.570801 
	C2268.886719,1001.552795 2281.824463,1016.605225 2300.610596,1026.576050 
	C2315.853027,1034.666260 2332.187500,1039.020996 2349.336426,1040.003784 
	C2368.336426,1041.092651 2387.317871,1040.972168 2405.910645,1035.997803 
	C2421.588135,1031.803467 2436.003662,1025.189087 2447.531982,1013.393677 
	C2467.227783,993.241699 2466.196045,964.974304 2445.076416,946.238037 
	C2434.907471,937.216675 2422.876953,931.236572 2409.910400,927.949158 
	C2389.287354,922.720520 2368.406738,918.491211 2347.595703,914.023254 
	C2316.042969,907.249207 2284.259033,901.435059 2252.940430,893.721436 
	C2222.338867,886.184387 2193.727783,873.545044 2168.527832,854.073792 
	C2133.147705,826.736877 2114.894287,790.365234 2112.055664,746.095459 
	C2110.772705,726.082764 2111.714111,706.146729 2116.729980,686.565369 
	C2124.208252,657.371094 2139.082764,632.603882 2161.563965,611.547852 
z"/>
<path fill="#010101" opacity="1.000000" stroke="none" 
	d="
M3170.394043,745.999756 
	C3170.408691,616.712524 3170.422607,488.425323 3170.459961,360.138092 
	C3170.459961,359.510651 3170.794922,358.883331 3171.155273,357.617889 
	C3226.142822,357.617889 3281.308594,357.617889 3337.870605,357.617889 
	C3337.870605,466.104187 3337.870850,574.549622 3337.870850,682.994995 
	C3337.870850,791.575500 3337.870605,900.156006 3337.870605,1009.802124 
	C3450.852783,1009.802124 3563.256592,1009.802124 3676.137939,1009.802124 
	C3676.137939,1056.064331 3676.137939,1101.263306 3676.137939,1147.154541 
	C3508.060547,1147.154541 3339.964355,1147.154541 3170.394043,1147.154541 
	C3170.394043,1013.927490 3170.394043,880.463623 3170.394043,745.999756 
z"/>
<path fill="#5047E5" opacity="1.000000" stroke="none" 
	d="
M2690.782471,576.114014 
	C2690.782959,568.583862 2690.782959,562.032776 2690.782959,554.624817 
	C2718.390381,554.624817 2744.585449,554.624817 2771.709229,554.624817 
	C2771.709229,507.245453 2771.709229,460.740814 2771.709229,414.541687 
	C2779.444824,412.093903 2918.326904,411.302032 2936.316406,413.500000 
	C2936.316406,436.792603 2936.316406,460.294800 2936.316406,483.796967 
	C2936.316406,507.026062 2936.316406,530.255127 2936.316406,554.489136 
	C2973.949463,554.489136 3010.445068,554.489136 3047.542480,554.489136 
	C3047.542480,595.964355 3047.542480,636.419495 3047.542480,677.842407 
	C3010.834717,677.842407 2974.341064,677.842407 2937.205078,677.842407 
	C2936.847168,681.260010 2936.350830,683.793091 2936.350098,686.326355 
	C2936.316406,779.290527 2936.291748,872.254822 2936.411621,965.218811 
	C2936.419922,971.846619 2937.134277,978.538818 2938.209961,985.087830 
	C2941.637939,1005.955078 2954.223389,1017.834656 2976.045166,1022.018372 
	C2990.081543,1024.709351 3003.887451,1023.262390 3017.729004,1020.949890 
	C3022.604248,1020.135315 3027.472168,1019.277100 3033.185547,1018.293884 
	C3041.740479,1058.938110 3050.206299,1099.161011 3058.889893,1140.416992 
	C3048.958740,1143.084717 3040.100342,1145.749268 3031.106445,1147.828125 
	C3000.745605,1154.845581 2969.928711,1157.606201 2938.853027,1155.799683 
	C2905.957520,1153.887451 2874.387451,1146.803955 2845.319824,1130.241455 
	C2806.562988,1108.157959 2783.795654,1074.895874 2776.253174,1031.418213 
	C2773.480713,1015.438599 2772.352051,998.992798 2772.293213,982.753052 
	C2771.940430,885.458435 2772.118164,788.161926 2772.118408,690.866028 
	C2772.118408,686.962219 2772.118408,683.058411 2772.118408,678.375488 
	C2744.776611,678.375488 2718.564941,678.375488 2693.419678,678.375488 
	C2692.182129,677.280396 2691.916748,677.091431 2691.711182,676.851196 
	C2691.496338,676.600159 2691.179688,676.300781 2691.178467,676.021301 
	C2691.029785,643.045288 2690.906494,610.069153 2690.782471,576.114014 
z"/>
<path fill="#FFAD34" opacity="1.000000" stroke="none" 
	d="
M4501.892578,621.888306 
	C4542.821777,586.141174 4583.237793,550.880493 4623.553223,515.505859 
	C4628.162598,511.461517 4632.848633,508.110199 4639.113281,507.211487 
	C4652.274902,505.323334 4661.898438,516.439270 4657.635254,528.934753 
	C4656.566406,532.068970 4655.018066,535.060059 4653.493164,538.015198 
	C4616.384277,609.930481 4579.243164,681.828979 4542.136719,753.745178 
	C4540.356445,757.195374 4538.837402,760.780396 4536.594727,765.594543 
	C4541.488770,765.814880 4544.988770,766.108337 4548.488281,766.109863 
	C4611.129883,766.137695 4673.770996,766.129028 4736.412598,766.133667 
	C4739.411133,766.133850 4742.417480,766.052490 4745.406250,766.236084 
	C4753.078613,766.707581 4758.687500,770.171082 4761.384766,777.660461 
	C4764.060547,785.090637 4762.357910,791.118225 4755.475098,797.087280 
	C4724.520020,823.933960 4693.493164,850.698730 4662.522949,877.528320 
	C4604.107422,928.134460 4545.667969,978.713196 4487.326172,1029.404663 
	C4451.366211,1060.648804 4415.590820,1092.104004 4379.684082,1123.409668 
	C4371.333496,1130.690308 4362.448730,1132.061523 4354.973145,1127.571533 
	C4347.505371,1123.086182 4344.912109,1116.030151 4348.087402,1108.000732 
	C4349.552246,1104.297363 4351.480957,1100.769409 4353.310059,1097.218994 
	C4389.912109,1026.166260 4426.533203,955.122986 4463.139160,884.071838 
	C4464.934082,880.587463 4466.625000,877.049133 4469.166992,871.914368 
	C4464.040527,871.667542 4460.280762,871.330627 4456.520508,871.328674 
	C4394.545410,871.295898 4332.570312,871.317200 4270.595215,871.277161 
	C4266.612305,871.274536 4262.607910,871.058289 4258.650391,870.612732 
	C4250.837891,869.733276 4246.147461,865.139709 4243.729980,857.785950 
	C4241.270020,850.302979 4244.342773,844.948853 4249.793945,840.232422 
	C4279.521484,814.511536 4309.204590,788.739075 4338.925293,763.011108 
	C4386.529297,721.803345 4434.153320,680.619568 4481.762207,639.417419 
	C4488.311523,633.749268 4494.821289,628.034302 4501.892578,621.888306 
z"/>
<path fill="#FFFFFF" opacity="1.000000" stroke="none" 
	d="
M268.008820,801.193848 
	C309.989594,801.342468 350.975708,801.246460 391.954742,801.740173 
	C413.562073,802.000549 434.214355,807.140503 453.283997,817.522522 
	C509.376923,848.061035 519.210938,908.643127 502.467926,950.090881 
	C493.847992,971.429688 478.535065,986.646118 457.772095,996.397522 
	C437.209381,1006.054749 415.261414,1010.092407 392.819794,1010.345154 
	C343.510040,1010.900513 294.191498,1010.681458 244.876526,1010.750061 
	C243.589661,1010.751892 242.302338,1010.424255 240.361908,1010.161865 
	C240.361908,940.896362 240.361908,871.776855 240.361908,801.194275 
	C249.303070,801.194275 258.157166,801.194275 268.008820,801.193848 
z"/>
<path fill="#FEFEFF" opacity="1.000000" stroke="none" 
	d="
M471.138641,634.909180 
	C452.466705,665.788391 423.997070,679.980896 390.519318,685.798706 
	C381.391724,687.384949 371.976440,687.828430 362.687683,687.884644 
	C325.038940,688.112610 287.388062,687.985352 249.737991,687.989136 
	C246.812500,687.989441 243.887009,687.989197 240.322815,687.989197 
	C240.322815,622.633118 240.322815,558.150757 240.322815,492.893860 
	C242.725067,492.659973 245.264450,492.198090 247.803925,492.197510 
	C289.785217,492.188202 331.771790,491.852051 373.745789,492.423187 
	C397.287689,492.743500 420.161224,497.207764 440.530121,510.044067 
	C466.632446,526.493530 480.549713,550.246155 482.214905,581.095032 
	C483.220978,599.733093 480.421844,617.620789 471.138641,634.909180 
z"/>
<path fill="#FEFEFF" opacity="1.000000" stroke="none" 
	d="
M1048.493896,1031.868164 
	C1002.909424,1028.772217 972.925049,1005.062561 954.015198,965.579102 
	C940.889221,938.172363 934.133728,909.168091 932.037354,879.011963 
	C929.645813,844.609009 931.047974,810.458740 939.999084,776.925964 
	C945.621582,755.862915 953.919067,735.963196 966.286133,717.914551 
	C981.639221,695.508301 1002.290588,680.987000 1029.132080,675.348511 
	C1049.419189,671.086914 1069.490479,671.357605 1089.414673,676.939636 
	C1116.212158,684.447449 1135.401245,701.719849 1149.613037,724.984009 
	C1164.961548,750.108704 1173.510986,777.727600 1177.321899,806.682861 
	C1182.488403,845.938232 1181.662109,885.089539 1172.226440,923.779358 
	C1166.735962,946.291931 1158.149048,967.529724 1144.967896,986.661865 
	C1124.614380,1016.204895 1096.235596,1031.093140 1060.422852,1031.898926 
	C1056.760010,1031.981323 1053.093262,1031.892090 1048.493896,1031.868164 
z"/>
<path fill="#FEFEFF" opacity="1.000000" stroke="none" 
	d="
M1601.866577,902.015381 
	C1594.811035,852.306091 1596.669922,804.169617 1613.436646,757.278625 
	C1618.841553,742.162720 1626.037720,727.941650 1635.630371,714.971558 
	C1659.903198,682.153076 1693.435303,670.362549 1732.798706,672.829346 
	C1772.415649,675.311890 1800.682129,695.715332 1819.702881,729.923523 
	C1834.506226,756.546936 1842.257324,785.354431 1845.615723,815.372620 
	C1849.607056,851.047974 1848.259277,886.584656 1839.909058,921.592102 
	C1833.275269,949.403137 1822.604980,975.471191 1803.593262,997.414856 
	C1784.144897,1019.862671 1759.190918,1030.638428 1729.797729,1031.872803 
	C1705.593018,1032.889404 1682.690430,1028.625854 1662.117920,1015.095581 
	C1643.439209,1002.810852 1630.877686,985.413635 1621.250854,965.634705 
	C1611.561401,945.727051 1605.379395,924.730469 1601.866577,902.015381 
z"/>
</svg>